name C:\Users\u0101727\Documents\MyRepositories\upper-imu-dc\Results\main_tracking\Case_40\FLX01_linearAccelerations_groundFrame.mot
datacolumns 4
datarows 47
range 5.01000000 5.47000000
endheader 
time	radius_imu_x	radius_imu_y	radius_imu_z	
          5.01000000	          1.44182847	         12.55093316	         -6.28510540	
          5.02000000	          1.82978792	         12.53257357	         -6.09893543	
          5.03000000	          2.02435779	         12.43612839	         -6.11104175	
          5.04000000	          2.35128548	         11.97348002	         -6.25742324	
          5.05000000	          2.90603541	         11.79053174	         -6.18084079	
          5.06000000	          3.12066625	         11.68132763	         -6.36681836	
          5.07000000	          3.26056330	         11.55429005	         -6.63936776	
          5.08000000	          3.28308512	         11.41588265	         -7.01206567	
          5.09000000	          3.20117246	         11.25472987	         -7.46474136	
          5.10000000	          3.02432631	         11.07105591	         -7.93566516	
          5.11000000	          2.76243571	         10.86749717	         -8.35278693	
          5.12000000	          2.41946800	         10.64907773	         -8.66035145	
          5.13000000	          1.99498575	         10.42402939	         -8.83867176	
          5.14000000	          1.48810909	         10.20522662	         -8.90376569	
          5.15000000	          0.90159147	         10.00955074	         -8.88965774	
          5.16000000	          0.24397057	          9.85463746	         -8.82393968	
          5.17000000	         -0.46955367	          9.75446846	         -8.71082570	
          5.18000000	         -1.21789759	          9.71657063	         -8.52675524	
          5.19000000	         -1.97806497	          9.74258098	         -8.22508262	
          5.20000000	         -2.73047734	          9.83131691	         -7.74888381	
          5.21000000	         -3.46158532	          9.98174035	         -7.04979814	
          5.22000000	         -4.16305032	         10.19331328	         -6.10295077	
          5.23000000	         -4.82995714	         10.46288785	         -4.91047258	
          5.24000000	         -5.46000982	         10.77950858	         -3.49650961	
          5.25000000	         -6.05435916	         11.11990895	         -1.89944045	
          5.26000000	         -6.61994113	         11.44752255	         -0.16386001	
          5.27000000	         -7.17175979	         11.71646297	          1.66600501	
          5.28000000	         -7.73237290	         11.87951430	          3.54864638	
          5.29000000	         -8.32711437	         11.89742758	          5.44176069	
          5.30000000	         -8.97611357	         11.74650935	          7.29503375	
          5.31000000	         -9.68632032	         11.42277530	          9.04584715	
          5.32000000	        -10.44559645	         10.94079385	         10.61929689	
          5.33000000	        -11.22603322	         10.33392657	         11.94150196	
          5.34000000	        -12.02243633	          9.65747027	         12.84373910	
          5.35000000	        -12.77001282	          9.06723478	         13.37296600	
          5.36000000	        -12.75096629	          8.54284382	         14.17052285	
          5.37000000	        -13.78648460	          8.36631870	         13.10825087	
          5.38000000	        -12.94998658	          8.41420899	         13.24474771	
          5.39000000	        -12.02227756	          8.61551092	         12.00711747	
          5.40000000	        -10.29881430	          8.91617689	         10.52010177	
          5.41000000	         -8.35542664	          9.45166385	          8.41853396	
          5.42000000	         -6.31366562	         10.07665465	          6.20534536	
          5.43000000	         -4.33506595	         10.71097060	          4.10034076	
          5.44000000	         -2.52700534	         11.28188925	          2.25585001	
          5.45000000	         -0.96564961	         11.73549405	          0.75861108	
          5.46000000	          0.30244787	         12.04854180	         -0.37576612	
          5.47000000	          1.25524188	         12.21449078	         -1.16070336	
